# xmcd
#
# Track frame offsets: 
#        150
#        13629
#        26028
#        43571
#        60375
#        76256
#        94352
#        111663
#        131463
#        149749
#        161332
#        162526
#        176758
#
# Disc length: 2686 seconds
#
# Revision: 2
# Processed by: cddbd v1.5.2PL0 Copyright (c) Steve Scherf et al.
# Submitted via: ExactAudioCopy v1.0b3
#
DISCID=b20a7c0d
DTITLE=Teddy Morgan - Freight
DYEAR=2003
DGENRE=Alt. Country
TTITLE0=No Such Pain As Love
TTITLE1=Searching for You
TTITLE2=Train
TTITLE3=Waiting
TTITLE4=Strobe Light
TTITLE5=She Belongs To Me
TTITLE6=1000 Miles
TTITLE7=World for The Knowing
TTITLE8=Round Every Bend
TTITLE9=Middle Of the Night
TTITLE10=Rest
TTITLE11=Moon So High (Bonus Live)
TTITLE12=Along the Way (Bonus Live)
EXTD=
EXTT0=
EXTT1=
EXTT2=
EXTT3=
EXTT4=
EXTT5=
EXTT6=
EXTT7=
EXTT8=
EXTT9=
EXTT10=
EXTT11=
EXTT12=
PLAYORDER=
